# xmcd CD database file generated by Grip 3.1.4
# 
# Track frame offsets:
#       150
#       18219
#       33786
#       49637
#       68446
#       82563
#       100490
#       117645
#       137582
#       161381
#       169525
#       188252
#       212459
#       229726
#       243988
#       260777
# 
# Disc length: 3625 seconds
# 
# Revision: 7
# Processed by: cddbd v1.5.1PL0 Copyright (c) Steve Scherf et al.
# Submitted via: Grip 3.1.4
# 
DISCID=ba0e2710
DTITLE=Janis Joplin - Absolute Janis - Disc 1
DYEAR=1997
DGENRE=Blues
TTITLE0=Cry baby
TTITLE1=Get it while you can
TTITLE2=A woman left lonely
TTITLE3=Piece of my heart
TTITLE4=Down on me
TTITLE5=Try (just a little bit harder)
TTITLE6=My baby
TTITLE7=Kozmic blues
TTITLE8=Ball and chain
TTITLE9=I'll drown in my own tears
TTITLE10=Maybe
TTITLE11=To love somebody
TTITLE12=Raise your hand (live)
TTITLE13=Magic of love
TTITLE14=Bye, bye baby
TTITLE15=Buried alive in the blues
EXTD=
EXTT0=
EXTT1=
EXTT2=
EXTT3=
EXTT4=
EXTT5=
EXTT6=
EXTT7=
EXTT8=
EXTT9=
EXTT10=
EXTT11=
EXTT12=
EXTT13=
EXTT14=
EXTT15=
PLAYORDER=
